<mxfile host="app.diagrams.net" modified="2022-11-18T07:28:51.558Z" agent="5.0 (Macintosh; Intel Mac OS X 10_15_7) AppleWebKit/537.36 (KHTML, like Gecko) Chrome/107.0.0.0 Safari/537.36" etag="e2H8jqePoQqL9oa6-tnk" version="20.5.3" type="github">
  <diagram id="GfOiD7L5Lf0xXkd3SCVE" name="第 1 页">
    <mxGraphModel dx="1426" dy="793" grid="1" gridSize="10" guides="1" tooltips="1" connect="1" arrows="1" fold="1" page="1" pageScale="1" pageWidth="3300" pageHeight="4681" math="0" shadow="0">
      <root>
        <mxCell id="0" />
        <mxCell id="1" parent="0" />
        <mxCell id="NvlOek_77_1kg0eh45Kx-1" value="facade" style="shape=umlLifeline;perimeter=lifelinePerimeter;whiteSpace=wrap;html=1;container=1;collapsible=0;recursiveResize=0;outlineConnect=0;" parent="1" vertex="1">
          <mxGeometry x="200" y="120" width="100" height="490" as="geometry" />
        </mxCell>
        <mxCell id="NvlOek_77_1kg0eh45Kx-3" value="service" style="shape=umlLifeline;perimeter=lifelinePerimeter;whiteSpace=wrap;html=1;container=1;collapsible=0;recursiveResize=0;outlineConnect=0;" parent="1" vertex="1">
          <mxGeometry x="440" y="120" width="100" height="490" as="geometry" />
        </mxCell>
        <mxCell id="NvlOek_77_1kg0eh45Kx-5" value="" style="html=1;points=[];perimeter=orthogonalPerimeter;" parent="NvlOek_77_1kg0eh45Kx-3" vertex="1">
          <mxGeometry x="45" y="60" width="10" height="430" as="geometry" />
        </mxCell>
        <mxCell id="GzJHAL6nyPwYvDBZ3UiM-9" value="" style="html=1;points=[];perimeter=orthogonalPerimeter;" vertex="1" parent="NvlOek_77_1kg0eh45Kx-3">
          <mxGeometry x="50" y="330" width="10" height="40" as="geometry" />
        </mxCell>
        <mxCell id="GzJHAL6nyPwYvDBZ3UiM-10" value="验证属性并生成groovy" style="edgeStyle=orthogonalEdgeStyle;html=1;align=left;spacingLeft=2;endArrow=block;rounded=0;entryX=1;entryY=0;" edge="1" target="GzJHAL6nyPwYvDBZ3UiM-9" parent="NvlOek_77_1kg0eh45Kx-3">
          <mxGeometry relative="1" as="geometry">
            <mxPoint x="55" y="310" as="sourcePoint" />
            <Array as="points">
              <mxPoint x="85" y="310" />
            </Array>
          </mxGeometry>
        </mxCell>
        <mxCell id="GzJHAL6nyPwYvDBZ3UiM-11" value="" style="html=1;points=[];perimeter=orthogonalPerimeter;" vertex="1" parent="NvlOek_77_1kg0eh45Kx-3">
          <mxGeometry x="50" y="80" width="10" height="20" as="geometry" />
        </mxCell>
        <mxCell id="GzJHAL6nyPwYvDBZ3UiM-12" value="基础数据校验" style="edgeStyle=orthogonalEdgeStyle;html=1;align=left;spacingLeft=2;endArrow=block;rounded=0;entryX=1;entryY=0;" edge="1" target="GzJHAL6nyPwYvDBZ3UiM-11" parent="NvlOek_77_1kg0eh45Kx-3">
          <mxGeometry relative="1" as="geometry">
            <mxPoint x="55" y="60" as="sourcePoint" />
            <Array as="points">
              <mxPoint x="85" y="60" />
            </Array>
          </mxGeometry>
        </mxCell>
        <mxCell id="NvlOek_77_1kg0eh45Kx-4" value="user-selector-service" style="shape=umlLifeline;perimeter=lifelinePerimeter;whiteSpace=wrap;html=1;container=1;collapsible=0;recursiveResize=0;outlineConnect=0;" parent="1" vertex="1">
          <mxGeometry x="670" y="120" width="160" height="480" as="geometry" />
        </mxCell>
        <mxCell id="NvlOek_77_1kg0eh45Kx-8" value="" style="html=1;points=[];perimeter=orthogonalPerimeter;" parent="NvlOek_77_1kg0eh45Kx-4" vertex="1">
          <mxGeometry x="75" y="120" width="10" height="40" as="geometry" />
        </mxCell>
        <mxCell id="NvlOek_77_1kg0eh45Kx-6" value="创建规则" style="html=1;verticalAlign=bottom;endArrow=block;entryX=0;entryY=0;rounded=0;" parent="1" source="NvlOek_77_1kg0eh45Kx-1" target="NvlOek_77_1kg0eh45Kx-5" edge="1">
          <mxGeometry relative="1" as="geometry">
            <mxPoint x="415" y="230" as="sourcePoint" />
          </mxGeometry>
        </mxCell>
        <mxCell id="NvlOek_77_1kg0eh45Kx-7" value="返回创建的规则" style="html=1;verticalAlign=bottom;endArrow=open;dashed=1;endSize=8;exitX=0;exitY=0.95;rounded=0;" parent="1" source="NvlOek_77_1kg0eh45Kx-5" target="NvlOek_77_1kg0eh45Kx-1" edge="1">
          <mxGeometry relative="1" as="geometry">
            <mxPoint x="415" y="306" as="targetPoint" />
          </mxGeometry>
        </mxCell>
        <mxCell id="NvlOek_77_1kg0eh45Kx-10" value="用户人群bitmap" style="html=1;verticalAlign=bottom;endArrow=open;dashed=1;endSize=8;rounded=0;" parent="1" edge="1">
          <mxGeometry relative="1" as="geometry">
            <mxPoint x="494" y="280" as="targetPoint" />
            <mxPoint x="740" y="278" as="sourcePoint" />
          </mxGeometry>
        </mxCell>
        <mxCell id="NvlOek_77_1kg0eh45Kx-9" value="用户人群ID" style="html=1;verticalAlign=bottom;endArrow=block;entryX=0;entryY=0;rounded=0;exitX=0.9;exitY=0.142;exitDx=0;exitDy=0;exitPerimeter=0;" parent="1" source="NvlOek_77_1kg0eh45Kx-5" target="NvlOek_77_1kg0eh45Kx-8" edge="1">
          <mxGeometry relative="1" as="geometry">
            <mxPoint x="500" y="240" as="sourcePoint" />
          </mxGeometry>
        </mxCell>
        <mxCell id="NvlOek_77_1kg0eh45Kx-13" value="database" style="shape=umlLifeline;perimeter=lifelinePerimeter;whiteSpace=wrap;html=1;container=1;collapsible=0;recursiveResize=0;outlineConnect=0;" parent="1" vertex="1">
          <mxGeometry x="920" y="120" width="100" height="480" as="geometry" />
        </mxCell>
        <mxCell id="NvlOek_77_1kg0eh45Kx-15" value="" style="html=1;points=[];perimeter=orthogonalPerimeter;" parent="NvlOek_77_1kg0eh45Kx-13" vertex="1">
          <mxGeometry x="45" y="190" width="10" height="40" as="geometry" />
        </mxCell>
        <mxCell id="NvlOek_77_1kg0eh45Kx-24" value="" style="html=1;points=[];perimeter=orthogonalPerimeter;" parent="NvlOek_77_1kg0eh45Kx-13" vertex="1">
          <mxGeometry x="45" y="380" width="10" height="80" as="geometry" />
        </mxCell>
        <mxCell id="NvlOek_77_1kg0eh45Kx-31" value="" style="html=1;points=[];perimeter=orthogonalPerimeter;" parent="NvlOek_77_1kg0eh45Kx-13" vertex="1">
          <mxGeometry x="45" y="260" width="10" height="30" as="geometry" />
        </mxCell>
        <mxCell id="NvlOek_77_1kg0eh45Kx-16" value="人群bitmap存入redis" style="html=1;verticalAlign=bottom;endArrow=block;entryX=0;entryY=0;rounded=0;exitX=1;exitY=0.302;exitDx=0;exitDy=0;exitPerimeter=0;" parent="1" source="NvlOek_77_1kg0eh45Kx-5" target="NvlOek_77_1kg0eh45Kx-15" edge="1">
          <mxGeometry relative="1" as="geometry">
            <mxPoint x="540" y="310" as="sourcePoint" />
          </mxGeometry>
        </mxCell>
        <mxCell id="NvlOek_77_1kg0eh45Kx-17" value="返回储存结果" style="html=1;verticalAlign=bottom;endArrow=open;dashed=1;endSize=8;exitX=0;exitY=0.95;rounded=0;entryX=0.9;entryY=0.386;entryDx=0;entryDy=0;entryPerimeter=0;" parent="1" source="NvlOek_77_1kg0eh45Kx-15" target="NvlOek_77_1kg0eh45Kx-5" edge="1">
          <mxGeometry relative="1" as="geometry">
            <mxPoint x="510" y="348" as="targetPoint" />
          </mxGeometry>
        </mxCell>
        <mxCell id="NvlOek_77_1kg0eh45Kx-25" value="存入数据库" style="html=1;verticalAlign=bottom;endArrow=block;entryX=0;entryY=0;rounded=0;exitX=1;exitY=0.74;exitDx=0;exitDy=0;exitPerimeter=0;" parent="1" source="NvlOek_77_1kg0eh45Kx-5" target="NvlOek_77_1kg0eh45Kx-24" edge="1">
          <mxGeometry relative="1" as="geometry">
            <mxPoint x="510" y="500" as="sourcePoint" />
          </mxGeometry>
        </mxCell>
        <mxCell id="NvlOek_77_1kg0eh45Kx-26" value="返回存储结果" style="html=1;verticalAlign=bottom;endArrow=open;dashed=1;endSize=8;exitX=-0.2;exitY=0.775;rounded=0;exitDx=0;exitDy=0;exitPerimeter=0;entryX=0.9;entryY=0.886;entryDx=0;entryDy=0;entryPerimeter=0;" parent="1" source="NvlOek_77_1kg0eh45Kx-24" target="NvlOek_77_1kg0eh45Kx-5" edge="1">
          <mxGeometry relative="1" as="geometry">
            <mxPoint x="510" y="562" as="targetPoint" />
          </mxGeometry>
        </mxCell>
        <mxCell id="NvlOek_77_1kg0eh45Kx-32" value="获取事件属性" style="html=1;verticalAlign=bottom;endArrow=block;entryX=0;entryY=0;rounded=0;exitX=1.2;exitY=0.467;exitDx=0;exitDy=0;exitPerimeter=0;" parent="1" source="NvlOek_77_1kg0eh45Kx-5" target="NvlOek_77_1kg0eh45Kx-31" edge="1">
          <mxGeometry relative="1" as="geometry">
            <mxPoint x="530" y="380" as="sourcePoint" />
          </mxGeometry>
        </mxCell>
        <mxCell id="NvlOek_77_1kg0eh45Kx-33" value="返回事件属性" style="html=1;verticalAlign=bottom;endArrow=open;dashed=1;endSize=8;exitX=0;exitY=0.95;rounded=0;entryX=0.9;entryY=0.528;entryDx=0;entryDy=0;entryPerimeter=0;" parent="1" source="NvlOek_77_1kg0eh45Kx-31" target="NvlOek_77_1kg0eh45Kx-5" edge="1">
          <mxGeometry relative="1" as="geometry">
            <mxPoint x="520" y="409" as="targetPoint" />
          </mxGeometry>
        </mxCell>
      </root>
    </mxGraphModel>
  </diagram>
</mxfile>
